<?xml version="1.0" encoding="utf-8"?>
<!-- Generator: Adobe Illustrator 22.0.0, SVG Export Plug-In . SVG Version: 6.00 Build 0)  -->
<svg version="1.1" id="Capa_1" xmlns="http://www.w3.org/2000/svg" xmlns:xlink="http://www.w3.org/1999/xlink" x="0px" y="0px"
	 viewBox="0 0 2834.6 2834.6" style="enable-background:new 0 0 2834.6 2834.6;" xml:space="preserve">
<style type="text/css">
	.st0{fill:#00FEB3;}
</style>
<g>
	<path class="st0" d="M652.1,1418.2c0,36.2,2.8,71.8,8,106.7l226.5-211.6c32.2-30.1,77.1-42.4,120.3-33.3
		c66.8,14.1,121.2,46.7,121.2,46.7l-400.9,415l-140.9,145.9c-38.4-65.2-69.1-135.7-90.6-209.7c-24-82.6-37-169.6-37-259.7
		c0-520,429.1-941.3,958.5-941.3c78.2,0,154.1,9.2,226.9,26.5c9.8,2.3,11.9,15.6,3.3,21l-231.6,145.8
		C994.4,671.1,652.1,1006.3,652.1,1418.2z"/>
	<path class="st0" d="M2375.6,1418.2c0,519.7-429.4,941.1-958.5,941.1c-95.3,0-187.6-13.8-274.6-39.2
		c-74.6-21.8-145.3-52.2-211.1-90.3l146.7-141.7l427.2-412.5c0,0,35.9,60.2,48.5,131.6c6.8,38.8-6.1,78.6-33,107.5l-225.5,241.7
		c39.8,6.4,80.4,9.7,121.8,9.7c421.6,0,765.1-335.4,765.1-747.7c0-4.1,0-8.3-0.3-12.4v-0.3l145-228.3c4.5-7.1,15.4-5.5,17.6,2.6
		C2365,1255.8,2375.6,1335.7,2375.6,1418.2z"/>
	<path class="st0" d="M1405,1542.4l-803,771.3c-26.3,25.2-68,24.4-93.3-1.7l-20.4-21.1c-24.3-25.1-24.1-65,0.3-89.9l777.4-793.7
		c9.6-9.8,25.3-9.9,35-0.2l104.3,104.3C1414,1520,1413.8,1534,1405,1542.4z"/>
	<path class="st0" d="M2330.9,546.2c-1.7-11.3-10.8-20.2-22.1-21.3c-117.4-11.9-242.3,2.2-242.3,2.2
		c-231.8,23.2-484.3,229.9-501.8,244.2c-0.6,0.6-1.4,1.1-1.9,1.7l-59.4,39c-67.1,41.4-120.7,46.7-120.7,46.7H1371
		c-37.9,0-75.2,10.5-106.7,31.2c-99.7,66-190.4,151.4-236.8,197.5c-13.5,13.5-6.6,37,12.2,40.6c84.3,17.1,271.6,70.2,425.8,224.4
		c162.5,155,221.9,350.3,239.8,434.9c3.9,18.8,28.5,26,42.8,12.2c46.7-44.8,132.1-131.2,200.6-227.1c26.5-37,40.6-81.5,40.6-127.1
		v-1.1c0-1.1,0-2.2,0.3-3.3c1.4-9.7,9.7-59.1,48.9-119.9l41.2-59.7c0.6-0.6,1.1-1.4,1.7-1.9c14.9-17.1,232.4-270.8,257.5-503.7v-1.4
		C2339.4,745.7,2346.1,647.6,2330.9,546.2z M1886.3,1090.5c-76.5,0-138.1-61.6-138.1-138.1c0-76.3,61.6-138.1,138.1-138.1
		c76.3,0,138.1,61.9,138.1,138.1C2024.4,1028.9,1962.6,1090.5,1886.3,1090.5z"/>
</g>
</svg>
